<svg xmlns="http://www.w3.org/2000/svg" version="1.1" xmlns:xlink="http://www.w3.org/1999/xlink" xmlns:svgjs="http://svgjs.dev/svgjs" width="100%" height="100%" viewBox="0 0 1000 600"><rect width="1000" height="600" x="0" y="0" fill="pink"/><g><rect width="333.3333333333333" height="333.3333333333333" y="113.15071567540612" fill="#b88746" transform="matrix(1.374706233176266,0,0,1.374706233176266,0,-84.66673605229528)" x="90.92852020263672"/><path d="M300.4913883924711 354.8173907745089Q293.6418103549397 354.8173907745089 288.97949253107373 352.5437913418829Q284.3171747072078 350.27019190925694 281.6406589194329 345.08983877162814L281.6406589194329 345.08983877162814Q276.0286096870017 334.3262161412216 275.62569333185274 308.4244504530775L275.62569333185274 308.4244504530775Q275.42423515427834 294.52383620044014 270.6467983717984 285.3143195113222Q265.898141328972 276.0760230825508 255.3071971364864 276.0760230825508L255.3071971364864 276.0760230825508L232.74388124814755 276.0760230825508L232.74388124814755 340.11094381157375Q232.74388124814755 343.0176975165766 233.98141005324777 344.37034528029073Q235.21893885834797 345.72299304400497 238.32715074092528 345.72299304400497L238.32715074092528 345.72299304400497L256.77496385881454 345.72299304400497L256.77496385881454 352.34233316430846L193.14295948494055 352.34233316430846L193.14295948494055 345.72299304400497L208.07964436510366 345.72299304400497Q213.6629138578814 345.72299304400497 213.6629138578814 340.11094381157375L213.6629138578814 340.11094381157375L213.6629138578814 217.01999731358228Q213.6629138578814 214.14202334823293 212.31026609416722 212.78937558451875Q210.9863980701065 211.43672782080455 208.07964436510366 211.43672782080455L208.07964436510366 211.43672782080455L193.14295948494055 211.43672782080455L193.14295948494055 204.81738770050106L261.1207045464921 204.81738770050106Q281.2089628246305 204.81738770050106 294.0735064497421 212.4727984483303Q306.9092703352002 220.1282091961596 306.9092703352002 237.9716477813255L306.9092703352002 237.9716477813255Q306.9092703352002 253.282469276984 295.42615421345624 262.6071049247159Q283.91425835205894 271.9317405724478 267.7400446667956 273.60096547235037L267.7400446667956 273.60096547235037L267.7400446667956 274.4355779223017Q279.5685176643814 276.7091773549277 287.13758919325016 285.3143195113222Q294.67788098246547 293.91946166771675 297.1817183323194 314.64087421823206L297.1817183323194 314.64087421823206Q298.62070531499404 326.44056747616435 299.7718949011338 331.82237879136767Q300.89430474762 337.2041901065709 302.6786486061366 339.3914503202364Q304.4342127249997 341.5787105339019 307.94534096272594 341.5787105339019L307.94534096272594 341.5787105339019Q316.8670602553089 341.5787105339019 316.8670602553089 319.188073083484L316.8670602553089 319.188073083484L322.0474133929377 319.188073083484Q322.0474133929377 332.6569912413189 318.1045890604091 343.7371910079139Q314.1617647278805 354.8173907745089 300.4913883924711 354.8173907745089L300.4913883924711 354.8173907745089ZM232.74388124814755 269.4566829622473L252.83213952628597 269.4566829622473Q270.24388201664954 269.4566829622473 277.5827156282903 261.05299898342724Q284.9503289795847 252.67809474426065 284.9503289795847 237.9716477813255L284.9503289795847 237.9716477813255Q284.9503289795847 225.3085623337884 278.2158699006672 218.37264507729648Q271.4814108217497 211.43672782080455 259.8831757413918 211.43672782080455L259.8831757413918 211.43672782080455L238.32715074092528 211.43672782080455Q235.42039703592243 211.43672782080455 234.06774927220826 212.78937558451875Q232.74388124814755 214.14202334823293 232.74388124814755 217.01999731358228L232.74388124814755 217.01999731358228L232.74388124814755 269.4566829622473Z " fill="orange" transform="matrix(1.374706233176266,0,0,1.374706233176266,0,-84.66673605229528)"/><path d="M614.9436131239164 354.8173907745089Q608.094035086385 354.8173907745089 603.4317172625191 352.5437913418829Q598.7693994386532 350.27019190925694 596.0928836508782 345.08983877162814L596.0928836508782 345.08983877162814Q590.480834418447 334.3262161412216 590.0779180632981 308.4244504530775L590.0779180632981 308.4244504530775Q589.8764598857236 294.52383620044014 585.0990231032438 285.3143195113222Q580.3503660604173 276.0760230825508 569.7594218679317 276.0760230825508L569.7594218679317 276.0760230825508L547.1961059795929 276.0760230825508L547.1961059795929 340.11094381157375Q547.1961059795929 343.0176975165766 548.4336347846931 344.37034528029073Q549.6711635897933 345.72299304400497 552.7793754723706 345.72299304400497L552.7793754723706 345.72299304400497L571.2271885902599 345.72299304400497L571.2271885902599 352.34233316430846L507.59518421638586 352.34233316430846L507.59518421638586 345.72299304400497L522.5318690965489 345.72299304400497Q528.1151385893268 345.72299304400497 528.1151385893268 340.11094381157375L528.1151385893268 340.11094381157375L528.1151385893268 217.01999731358228Q528.1151385893268 214.14202334823293 526.7624908256125 212.78937558451875Q525.4386228015519 211.43672782080455 522.5318690965489 211.43672782080455L522.5318690965489 211.43672782080455L507.59518421638586 211.43672782080455L507.59518421638586 204.81738770050106L575.5729292779374 204.81738770050106Q595.6611875560759 204.81738770050106 608.5257311811874 212.4727984483303Q621.3614950666455 220.1282091961596 621.3614950666455 237.9716477813255L621.3614950666455 237.9716477813255Q621.3614950666455 253.282469276984 609.8783789449016 262.6071049247159Q598.3664830835041 271.9317405724478 582.1922693982409 273.60096547235037L582.1922693982409 273.60096547235037L582.1922693982409 274.4355779223017Q594.0207423958267 276.7091773549277 601.5898139246955 285.3143195113222Q609.1301057139108 293.91946166771675 611.6339430637647 314.64087421823206L611.6339430637647 314.64087421823206Q613.0729300464394 326.44056747616435 614.2241196325791 331.82237879136767Q615.3465294790653 337.2041901065709 617.1308733375819 339.3914503202364Q618.886437456445 341.5787105339019 622.3975656941712 341.5787105339019L622.3975656941712 341.5787105339019Q631.3192849867543 341.5787105339019 631.3192849867543 319.188073083484L631.3192849867543 319.188073083484L636.4996381243831 319.188073083484Q636.4996381243831 332.6569912413189 632.5568137918544 343.7371910079139Q628.6139894593258 354.8173907745089 614.9436131239164 354.8173907745089L614.9436131239164 354.8173907745089ZM547.1961059795929 269.4566829622473L567.2843642577313 269.4566829622473Q584.6961067480948 269.4566829622473 592.0349403597356 261.05299898342724Q599.4025537110299 252.67809474426065 599.4025537110299 237.9716477813255L599.4025537110299 237.9716477813255Q599.4025537110299 225.3085623337884 592.6680946321126 218.37264507729648Q585.933635553195 211.43672782080455 574.3354004728371 211.43672782080455L574.3354004728371 211.43672782080455L552.7793754723706 211.43672782080455Q549.8726217673677 211.43672782080455 548.5199740036535 212.78937558451875Q547.1961059795929 214.14202334823293 547.1961059795929 217.01999731358228L547.1961059795929 217.01999731358228L547.1961059795929 269.4566829622473Z " fill="#b88746" transform="matrix(1.374706233176266,0,0,1.374706233176266,0,-84.66673605229528)"/></g></svg>